Patient4_TMGait_0pt3_02_right_18_EMG.mot
version=1
nRows=23
nColumns=33
inDegrees=no
endheader
time	1LAddLong	2LGlutMax	3LGlutMed	4LIliopsoas	5LSemiMemb	6LBicFemLong	7LRecFem	8LVastMed	9LVastLat	10LGasMed	11LTibAnt	12lTibPost	13LPeroneusLong	14LSol	15LExtDigLong	16LFlexDigLong	17RAddLong	18RGlutMax	19RGlutMed	20RIliopsoas	21RSemiMemb	22RBicFemLong	23RRecFem	24RVastMed	25RVastLat	26RGasMed	27RTibAnt	28RTibPost	29RPeroneusLong	30RSol	31RExtDigLong	32RFlexDigLong
34.677	0.002136	-0.3154	-0.007629	0.006409	0.016632	0	0.042572	0.007324	0.029602	0.012054	0.023956	0.01297	-0.028839	-0.018158	-0.2002	0.002289	0.055084	0.53055	0.13794	0.03891	-0.13062	-0.13931	-0.036621	0.024109	0.080566	0.049286	0.05127	0.26642	0.097351	-0.25742	-0.007324	0.00061
34.678	0.002136	-0.3302	0.010986	0.005341	-0.007172	0.006104	0.035248	0.001526	0.029449	0.009003	0.049133	-0.00824	-0.033417	-0.018158	-0.077972	-0.014038	0.019684	0.5072	0.14343	0.024109	-0.26627	0.012512	-0.022278	0.077209	0.10651	0.037079	0.016174	0.052795	0.9671	-0.41611	-0.004425	-0.010376
34.679	-0.005341	-0.33249	0.0383	0.005493	-0.007019	-0.012512	0.033875	0.003357	0.022583	0.003357	0.005341	0.005493	-0.03006	-0.017242	0.003052	-0.001678	0.045166	0.513	0.010376	0.036011	-0.02121	0.004272	0.081635	-0.084991	0.078583	-0.005951	0.10162	-0.005798	0.73242	-0.28519	-0.007477	-0.007782
34.68	0.002747	-0.32547	0.044556	0.010071	-0.004578	-0.055542	0.01709	0.006714	0.025177	0.005951	-0.043488	0.000916	-0.017242	-0.001678	-0.014038	-0.008087	0.067291	0.51071	0.13092	-0.003815	-0.066833	-0.11322	0.16357	-0.25207	0.003967	-0.018921	0.080719	-0.044861	0.24796	-0.10437	-0.005951	-0.013123
34.681	-0.00824	-0.32318	0.04364	0.003815	-0.004425	-0.093079	0.009613	0.005798	0.025482	-0.013428	-0.019073	0.008087	0.009613	-0.024109	-0.010376	-0.005951	0.081177	0.51559	0.2449	-0.08255	-0.087433	-0.1294	0.12558	-0.25864	-0.003967	0.008087	0.026703	0.042267	0.20783	-0.1796	-0.00885	0.001984
34.682	-0.003815	-0.3624	0.046082	-0.001373	0.00824	-0.04364	-0.03067	0.001221	0.03418	0.012054	-0.036926	0.012665	-0.020142	-0.041199	0.005646	0.004883	-0.072937	0.51422	-0.046844	-0.049896	-0.1416	0.044403	-0.02655	-0.085297	0.021667	0.018768	0.051575	0.021515	-0.63904	-0.15503	-0.007629	0.001984
34.683	-0.003662	-0.39444	0.048065	0.010834	0.002899	0.017395	-0.000916	-0.00351	0.031128	0.008698	-0.034027	-0.010376	-0.038147	-0.02655	0.013885	-0.010071	-0.2301	0.35034	-0.21988	-0.024872	-0.30655	0.21255	-0.15411	0.32532	0.06073	0.00946	0.19775	-0.003204	-0.28442	-0.028076	-0.004272	-0.001221
34.684	0.012665	-0.35812	0.047913	0.000916	0.006561	0.046387	-0.007019	0.002289	0.041656	-0.005493	-0.019379	0.021515	-0.029297	-0.025635	0.074615	0.006409	-0.12848	0.28229	-0.28442	-0.040894	-0.42343	0.054321	-0.001068	0.21378	-0.005646	0.012665	0.11505	-0.010681	-0.48065	-0.025177	-0.006561	0.00061
34.685	0.003662	-0.35263	0.039063	0.003815	0.006714	-0.00351	-0.027771	0.008545	0.032043	-0.013275	0.001526	0.024109	-0.015106	-0.019073	0.10803	0.007477	-0.041809	0.31433	-0.34531	-0.020142	-0.17319	-0.04364	0.061646	0.11093	-0.025482	0.016479	-0.14023	-0.008392	-0.95749	0.049133	-0.006866	-0.002289
34.686	0.004883	-0.37964	0.035553	0.003204	0.016937	0.046844	-0.035858	0.010223	0.035858	-0.014954	0.009308	-0.001068	-0.000916	-0.010529	0.099182	0.003967	-0.062256	0.36316	-0.18051	0.00473	-0.20096	-0.097046	-0.037689	0.067291	0.031891	0.011597	-0.16296	-0.006866	0.26047	-0.059204	-0.007172	-0.003662
34.687	-0.001221	-0.36591	0.029907	-0.005646	0.005493	0.093994	-0.017853	0.003967	0.037384	-0.017242	-0.010376	0.003357	0.007629	0.010681	0.061798	0.007019	-0.072784	0.37125	0.17212	-0.026703	0.04303	-0.096588	-0.081482	0.14557	0.037384	-0.006561	-0.19363	-0.011292	0.11505	-0.039063	-0.007324	-0.010834
34.688	-0.014343	-0.36789	0.056152	-0.000458	-0.011139	0.12665	0.016327	0.006714	0.014648	-0.010681	-0.01358	0.014648	0.000153	-0.006714	-0.007477	0.000153	-0.049744	0.29724	0.53085	-0.001526	0.24002	-0.32181	-0.088806	0.17807	0.04425	-0.002747	-0.067291	-0.009918	-0.7988	0.2269	-0.006256	-0.014496
34.689	-0.002136	-0.3772	0.06012	-0.008392	-0.001373	0.071411	0.000305	0.009308	0.01709	0.015106	0.014648	-0.000305	-0.005341	0.00885	-0.032654	0.005341	0.021667	0.1828	0.067749	-0.010376	0.055542	-0.38864	0.006104	0.070801	0.041809	-0.005493	-0.063324	-0.013275	-1.4549	0.14267	-0.009613	-0.014038
34.69	-0.011597	-0.35736	0.077515	0.005188	-0.001221	0.083466	0.010071	0.008698	0.010834	0.026245	0.00412	0.005035	0.002747	0.006409	-0.049438	0.010071	0.024261	0.09201	0.31464	-0.06424	0.13275	-0.33722	0.005035	0.016022	0.031891	-0.012207	-0.17746	-0.012817	0.53574	0.10757	-0.004578	-0.011444
34.691	-0.010681	-0.34622	0.075836	0.005035	-0.015259	0.061798	-0.002594	0.005493	0.018005	0.023956	-0.009308	0.006714	-0.001068	-0.014954	-0.025635	0.008698	-0.042419	0.11444	0.83008	-0.14221	0.054321	0.005035	-0.023041	0.043335	0.028229	-0.07019	-0.19516	-0.008698	1.1823	0.14984	-0.007629	-0.012665
34.692	-0.016174	-0.36453	0.063782	0.005798	-0.03067	0.021973	0.009766	0.005035	0.015259	0.006714	-0.010986	0.023499	-0.018768	-0.005188	0.001526	0.005798	-0.061035	0.1297	0.74875	-0.088654	0.10208	0.35385	0.021667	0.011139	0.009308	-0.11658	-0.079651	-0.011902	0.14404	0.078583	-0.007629	-0.01709
34.693	-0.00473	-0.37979	0.052795	0.011749	-0.034485	-0.053406	0.014038	0.005188	0.028381	0.009613	0.027313	0.021057	-0.0354	-0.013885	0.038452	0.007172	-0.059204	0.09201	0.14435	-0.023804	-0.072021	0.38635	-0.010071	0.11063	0.02121	-0.16602	0.098572	-0.014343	-0.18234	0.022888	-0.006256	-0.013275
34.694	0.014343	-0.36896	0.072937	0.030518	-0.016785	-0.11887	-0.008698	0.008392	0.023804	0.012817	0.04364	0.013428	-0.056152	0.007172	0.070343	0.011292	-0.016327	0.002747	-0.082855	0.010071	-0.22263	0.26901	0.018616	-0.03006	0.031738	-0.055847	-0.004578	-0.01297	0.74097	-0.11093	-0.012665	-0.011597
34.695	0.005493	-0.37064	0.06958	0.017242	0.010834	-0.1619	-0.010986	0.005035	0.023346	0.020905	0.067749	0.001678	-0.095978	0.023804	0.12421	0.037689	0.007324	-0.04776	-0.30136	0.020447	-0.26611	0.26382	0.032349	-0.1059	0.09491	0.1033	-0.026245	-0.026398	0.69122	-0.19699	-0.007324	-0.012665
34.696	0.007477	-0.37293	0.066071	0.006409	0.04364	-0.16281	-0.005341	0.001526	0.027008	0.011292	0.11108	0.027161	-0.10391	0.02655	0.12726	0.02182	0.019531	-0.005341	0.088654	-0.01236	-0.29678	0.42343	0.034485	-0.18539	0.1207	0.090179	0.010071	-0.034943	-0.159	-0.041809	-0.005798	-0.014648
34.697	0.00946	-0.39993	0.083466	-0.006561	0.065002	-0.073547	-0.039673	-0.005341	0.03479	-0.025024	0.084686	-0.016174	0.005646	0.030823	0.095978	0.024872	0.006714	-0.060577	0.20798	-0.001068	-0.20142	0.39612	-0.011749	-0.10315	0.10605	0.046234	-0.027466	0.033417	-1.0703	-0.075226	-0.009613	-0.00946
34.698	0.00412	-0.36423	0.093231	-0.006409	0.044861	0.071106	-0.032806	0.003815	0.040894	-0.059509	-0.10269	0.005341	0.17838	0.05661	-0.012207	0.035248	-0.030212	-0.17258	-0.36438	0.009155	0.11475	0.30838	-0.064545	0.09491	0.13245	-0.029297	-0.005646	0.031891	-0.43961	-0.080414	-0.007019	-0.007782
34.699	0.010986	-0.33814	0.11002	0.015564	0.033569	0.075684	-0.027161	0.004272	0.021362	-0.025024	-0.07782	-0.005188	0.13351	0.011292	-0.018005	0.012817	-0.025024	-0.29068	-0.30441	0.001831	0.28778	0.20783	-0.15396	0.14954	0.51285	-0.14755	0.024261	-0.010376	-0.36514	0.013428	-0.003815	-0.010986
